<svg width="104" height="26" viewBox="0 0 104 26" fill="none" xmlns="http://www.w3.org/2000/svg">
<path d="M21.2891 11.9255C24.4546 11.9255 27.0203 9.35977 27.0203 6.19427C27.0203 3.02877 24.4546 0.463013 21.2891 0.463013C18.1236 0.463013 15.5578 3.02877 15.5578 6.19427C15.5578 9.35977 18.1236 11.9255 21.2891 11.9255Z" fill="#8113DD"/>
<path d="M13.8596 12.5596V0.466797H1.50195C1.55034 7.14287 6.89706 12.5571 13.5438 12.7239V24.8167H25.9015C25.8531 18.1406 20.5064 12.7264 13.8596 12.5596Z" fill="#8113DD"/>
<path d="M5.84713 24.7834C9.07641 24.7834 11.6943 22.1655 11.6943 18.9363C11.6943 15.707 9.07641 13.0891 5.84713 13.0891C2.61785 13.0891 0 15.707 0 18.9363C0 22.1655 2.61785 24.7834 5.84713 24.7834Z" fill="#8113DD"/>
<path d="M44.1578 13.1072C43.6905 12.4794 43.0767 12.0121 42.314 11.7014C41.5525 11.3933 40.6167 11.1348 39.5076 10.9298C38.4125 10.7235 37.604 10.5439 37.0793 10.3937C36.5573 10.2434 36.1511 10.0448 35.8671 9.79905C35.5806 9.55329 35.438 9.20822 35.438 8.76383C35.438 8.14372 35.6761 7.66877 36.1511 7.33515C36.6286 7.00154 37.2614 6.83601 38.0547 6.83601C38.9104 6.83601 39.6005 7.05375 40.1251 7.4905C40.6498 7.9247 40.949 8.50025 41.0292 9.21586H44.5258C44.5105 8.2163 44.2214 7.31987 43.6586 6.52659C43.0958 5.7333 42.3255 5.11192 41.3514 4.65988C40.3747 4.20785 39.2771 3.9812 38.056 3.9812C36.8349 3.9812 35.7996 4.19894 34.8561 4.63569C33.9126 5.07244 33.174 5.67091 32.6443 6.43109C32.1121 7.19254 31.8472 8.0584 31.8472 9.02486C31.8472 10.0868 32.0815 10.9412 32.5488 11.5817C33.0161 12.2247 33.6222 12.7086 34.3697 13.0333C35.1146 13.3593 36.0339 13.6241 37.129 13.8304C38.2393 14.052 39.0606 14.2379 39.5903 14.3894C40.1226 14.5397 40.5352 14.7459 40.828 15.007C41.1222 15.268 41.2686 15.6207 41.2686 16.0651C41.2686 16.7005 41.0037 17.1958 40.4715 17.5524C39.9392 17.9089 39.2529 18.0884 38.4138 18.0884C37.3989 18.0884 36.5853 17.8389 35.9754 17.3384C35.3654 16.8393 35.028 16.1772 34.9643 15.352L31.4678 15.3049C31.4831 16.3669 31.7836 17.3257 32.3706 18.1839C32.9588 19.0396 33.7712 19.7094 34.8103 20.1932C35.8493 20.6771 37.0335 20.9203 38.3667 20.9203C39.6018 20.9203 40.7172 20.6898 41.7092 20.2302C42.6998 19.7705 43.4727 19.1389 44.0279 18.338C44.5831 17.5371 44.8607 16.6292 44.8607 15.6131C44.8607 14.597 44.6264 13.7298 44.1591 13.1046L44.1578 13.1072Z" fill="#292929"/>
<path d="M60.5585 8.55127L58.0602 17.187L55.823 8.94091H52.8026L50.4953 17.1641L48.4351 9.91628H45.085L48.4975 20.7803H52.0666L54.2555 13.4052L56.396 20.7803H59.9651L63.7915 8.55254H60.5623L60.5585 8.55127Z" fill="#292929"/>
<path d="M67.5506 4.06763L64.2119 5.85283C64.296 6.17244 64.4589 6.45258 64.7072 6.69451C65.0816 7.05868 65.5451 7.24077 66.1003 7.24077C66.6554 7.24077 67.1138 7.05995 67.4806 6.69451C67.8447 6.33034 68.0268 5.8783 68.0268 5.33841C68.0268 4.83545 67.8689 4.41015 67.5519 4.06763H67.5506ZM64.4106 8.54975V20.7775H67.7645V8.54975H64.4106Z" fill="#292929"/>
<path d="M81.3379 11.3815C80.854 10.429 80.1881 9.69559 79.34 9.17862C78.4907 8.66419 77.5192 8.40698 76.4241 8.40698C75.5837 8.40698 74.8439 8.57251 74.2009 8.90613C73.5578 9.23974 73.032 9.68413 72.6181 10.2393L72.4208 9.23974L69.3584 10.8772V25.5371H69.3622L72.7123 23.7455V19.2316C73.6011 20.3585 74.8312 20.9213 76.3999 20.9213C77.495 20.9213 78.4704 20.6615 79.3273 20.1471C80.183 19.6301 80.8527 18.9056 81.3366 17.9697C81.8205 17.0338 82.0637 15.9387 82.0637 14.6858C82.0637 13.4328 81.8205 12.3314 81.3366 11.3802L81.3379 11.3815ZM77.8299 17.1968C77.2747 17.8551 76.5451 18.1849 75.641 18.1849C74.7369 18.1849 74.0137 17.8589 73.4751 17.2082C72.9352 16.5588 72.6665 15.7019 72.6665 14.6399C72.6665 13.578 72.9352 12.7478 73.4751 12.106C74.0124 11.463 74.7357 11.1408 75.641 11.1408C76.5463 11.1408 77.2747 11.463 77.8299 12.106C78.3838 12.7478 78.6626 13.5933 78.6626 14.6399C78.6626 15.6866 78.3838 16.5385 77.8299 17.1968Z" fill="#292929"/>
<path d="M93.7095 9.73907C92.7813 8.85283 91.5945 8.40844 90.1531 8.40844C88.7117 8.40844 87.4397 8.9547 86.5356 10.0498V4.23828L83.1816 6.03368V20.7801H86.5356V14.5001C86.5356 13.4534 86.7788 12.6346 87.2627 12.0489C87.7465 11.4619 88.4163 11.1703 89.272 11.1703C90.1277 11.1703 90.7159 11.4351 91.1272 11.9674C91.5398 12.4971 91.7473 13.2713 91.7473 14.2861V20.7801H95.1013V14.1435C95.1013 12.0973 94.6378 10.6291 93.7095 9.74034V9.73907Z" fill="#292929"/>
<path d="M103.357 8.55108C102.453 8.55108 101.731 8.70515 101.191 9.01457C100.652 9.32398 100.2 9.78112 99.8354 10.3821L99.5374 8.62366L96.4814 10.2573V20.6923L99.8354 18.8969V14.7828C99.8354 13.801 100.058 13.023 100.501 12.4513C100.946 11.8808 101.644 11.5943 102.595 11.5943H103.928V8.5498H103.357V8.55108Z" fill="#292929"/>
</svg>
