<svg width="25" height="24" viewBox="0 0 25 24" fill="none" xmlns="http://www.w3.org/2000/svg">
<path d="M17.6172 18.4301H13.6172L9.16718 21.39C8.50718 21.83 7.61719 21.3601 7.61719 20.5601V18.4301C4.61719 18.4301 2.61719 16.4301 2.61719 13.4301V7.42999C2.61719 4.42999 4.61719 2.42999 7.61719 2.42999H17.6172C20.6172 2.42999 22.6172 4.42999 22.6172 7.42999V13.4301C22.6172 16.4301 20.6172 18.4301 17.6172 18.4301Z" stroke="#292929" stroke-width="1.5" stroke-miterlimit="10" stroke-linecap="round" stroke-linejoin="round"/>
<path d="M12.6172 11.36V11.15C12.6172 10.47 13.0372 10.11 13.4572 9.82001C13.8672 9.54001 14.2772 9.18002 14.2772 8.52002C14.2772 7.60002 13.5372 6.85999 12.6172 6.85999C11.6972 6.85999 10.9572 7.60002 10.9572 8.52002" stroke="#292929" stroke-width="1.5" stroke-linecap="round" stroke-linejoin="round"/>
<path d="M12.6127 13.75H12.6217" stroke="#292929" stroke-width="1.5" stroke-linecap="round" stroke-linejoin="round"/>
</svg>
