<svg width="25" height="24" viewBox="0 0 25 24" fill="none" xmlns="http://www.w3.org/2000/svg">
<path d="M12.6172 10.52C12.2072 10.52 11.8672 10.18 11.8672 9.77V6.44C11.8672 6.03 12.2072 5.69 12.6172 5.69C13.0272 5.69 13.3672 6.03 13.3672 6.44V9.77C13.3672 10.19 13.0272 10.52 12.6172 10.52Z" fill="#292929"/>
<path d="M12.6372 20.35C10.0572 20.35 7.48718 19.94 5.03718 19.12C4.12718 18.82 3.43718 18.17 3.13718 17.35C2.83718 16.53 2.93718 15.59 3.42718 14.77L4.69718 12.65C4.97718 12.18 5.22718 11.3 5.22718 10.75V8.64999C5.22718 4.55999 8.54718 1.23999 12.6372 1.23999C16.7272 1.23999 20.0472 4.55999 20.0472 8.64999V10.75C20.0472 11.29 20.2972 12.18 20.5772 12.65L21.8472 14.77C22.3172 15.55 22.3972 16.48 22.0872 17.33C21.7772 18.18 21.0972 18.83 20.2372 19.12C17.7872 19.95 15.2172 20.35 12.6372 20.35ZM12.6372 2.74999C9.37718 2.74999 6.72718 5.39999 6.72718 8.65999V10.76C6.72718 11.57 6.40718 12.74 5.98718 13.43L4.71718 15.56C4.45718 15.99 4.39718 16.45 4.54718 16.85C4.69718 17.25 5.03718 17.55 5.51718 17.71C10.1172 19.24 15.1772 19.24 19.7772 17.71C20.2072 17.57 20.5372 17.25 20.6872 16.83C20.8472 16.41 20.7972 15.95 20.5672 15.56L19.2972 13.44C18.8772 12.75 18.5572 11.58 18.5572 10.77V8.66999C18.5472 5.39999 15.8972 2.74999 12.6372 2.74999Z" fill="#292929"/>
<path d="M12.6172 22.9C11.5472 22.9 10.4972 22.46 9.7372 21.7C8.9772 20.94 8.5372 19.89 8.5372 18.82H10.0372C10.0372 19.5 10.3172 20.16 10.7972 20.64C11.2772 21.12 11.9372 21.4 12.6172 21.4C14.0372 21.4 15.1972 20.24 15.1972 18.82H16.6972C16.6972 21.07 14.8672 22.9 12.6172 22.9Z" fill="#292929"/>
</svg>
