<svg width="25" height="24" viewBox="0 0 25 24" fill="none" xmlns="http://www.w3.org/2000/svg">
<path d="M15.6172 12C15.6172 10.34 14.2772 9 12.6172 9C10.9572 9 9.61719 10.34 9.61719 12C9.61719 13.66 10.9572 15 12.6172 15C13.0272 15 13.4272 14.92 13.7872 14.76" stroke="#292929" stroke-width="1.5" stroke-miterlimit="10" stroke-linecap="round" stroke-linejoin="round"/>
<path d="M7.49719 20.58L8.58719 21.21C9.37719 21.68 10.3972 21.4 10.8672 20.61L10.9772 20.42C11.8772 18.85 13.3572 18.85 14.2672 20.42L14.3772 20.61C14.8472 21.4 15.8672 21.68 16.6572 21.21L18.3872 20.22C19.2972 19.7 19.6072 18.53 19.0872 17.63C18.1772 16.06 18.9172 14.78 20.7272 14.78C21.7672 14.78 22.6272 13.93 22.6272 12.88V11.12C22.6272 10.08 21.7772 9.22001 20.7272 9.22001C19.7172 9.22001 19.0372 8.82001 18.7972 8.19001C18.6072 7.70001 18.6872 7.06001 19.0872 6.37001C19.6072 5.46001 19.2972 4.30001 18.3872 3.78001L17.5772 3.32001" stroke="#292929" stroke-width="1.5" stroke-miterlimit="10" stroke-linecap="round" stroke-linejoin="round"/>
<path d="M14.2572 3.58C13.3572 5.15 11.8772 5.15 10.9672 3.58L10.8572 3.39C10.3972 2.6 9.37719 2.32 8.58719 2.79L6.85719 3.78C5.94719 4.3 5.63719 5.47 6.15719 6.38C7.06719 7.94 6.32719 9.22 4.51719 9.22C3.47719 9.22 2.61719 10.07 2.61719 11.12V12.88C2.61719 13.92 3.46719 14.78 4.51719 14.78C6.32719 14.78 7.06719 16.06 6.15719 17.63" stroke="#292929" stroke-width="1.5" stroke-miterlimit="10" stroke-linecap="round" stroke-linejoin="round"/>
</svg>
