<svg width="27" height="26" viewBox="0 0 27 26" fill="none" xmlns="http://www.w3.org/2000/svg">
<path d="M11.3642 1.67366C11.8729 -0.339701 14.7335 -0.339697 15.2423 1.67367L15.9162 4.34077C16.2216 5.54923 17.546 6.18702 18.6812 5.6723L21.1866 4.5363C23.0779 3.67875 24.8615 5.91525 23.6046 7.56832L21.9395 9.75815C21.1851 10.7504 21.5122 12.1835 22.6224 12.7501L25.0727 14.0006C26.9224 14.9446 26.2858 17.7335 24.2097 17.7815L21.4595 17.845C20.2134 17.8738 19.2969 19.0231 19.5461 20.2444L20.0961 22.9398C20.5113 24.9745 17.934 26.2157 16.6021 24.6224L14.8377 22.5119C14.0382 21.5556 12.5683 21.5556 11.7688 22.5119L10.0044 24.6224C8.67243 26.2157 6.09513 24.9745 6.51032 22.9398L7.06033 20.2444C7.30954 19.0231 6.39304 17.8738 5.14692 17.845L2.39672 17.7815C0.320625 17.7335 -0.315912 14.9446 1.53376 14.0006L3.98403 12.7501C5.09425 12.1835 5.42134 10.7504 4.66691 9.75815L3.00189 7.56832C1.74498 5.91525 3.52853 3.67875 5.41985 4.5363L7.92527 5.6723C9.06048 6.18702 10.3849 5.54923 10.6902 4.34077L11.3642 1.67366Z" fill="#CAFC55"/>
</svg>
